<svg xmlns="http://www.w3.org/2000/svg" width="82.267" height="81.666" viewBox="0 0 82.267 81.666">
  <g id="Group_106" data-name="Group 106" transform="translate(-3451.572 -435.515)">
    <path id="Path_188" data-name="Path 188" d="M3465.315,575.733a2.581,2.581,0,0,1-1.825-4.405l14.52-14.52c1.879-1.879,5.335-2.123,7.9-2a6.089,6.089,0,0,0,5.575-2.829,4.216,4.216,0,0,0-.365-5.029,8.016,8.016,0,0,0-3.437-2.1,4.981,4.981,0,0,1-3.752-3.752,8.015,8.015,0,0,0-2.1-3.437,4.217,4.217,0,0,0-5.03-.364,6.077,6.077,0,0,0-2.83,5.575c.126,2.569-.119,6.025-2,7.9l-14.52,14.52a2.581,2.581,0,0,1-3.65-3.65l14.52-14.52a8.42,8.42,0,0,0,.492-4,11.19,11.19,0,0,1,4.984-10.027,9.4,9.4,0,0,1,11.68.915,13.112,13.112,0,0,1,3.316,5.367c.049.139.109.309.161.444.135.052.3.111.444.161a13.116,13.116,0,0,1,5.367,3.315,9.4,9.4,0,0,1,.915,11.68,11.189,11.189,0,0,1-10.027,4.984,8.279,8.279,0,0,0-4.02.509l-14.5,14.5A2.572,2.572,0,0,1,3465.315,575.733Z" transform="translate(0 -59.802)" fill="#fff" stroke="#897ac8" stroke-width="2.5"/>
    <path id="Path_189" data-name="Path 189" d="M3569.775,484.235a8.869,8.869,0,0,1-6.339-2.524,13.112,13.112,0,0,1-3.315-5.367c-.049-.139-.109-.309-.162-.444-.134-.052-.3-.111-.443-.161a13.113,13.113,0,0,1-5.367-3.315,9.4,9.4,0,0,1-.915-11.68,11.191,11.191,0,0,1,10.027-4.984,8.268,8.268,0,0,0,4.019-.508l13.292-13.294a2.581,2.581,0,0,1,3.65,3.649l-13.31,13.31c-1.88,1.879-5.334,2.123-7.9,2a6.085,6.085,0,0,0-5.574,2.83,4.216,4.216,0,0,0,.365,5.03,8.019,8.019,0,0,0,3.436,2.1,4.981,4.981,0,0,1,3.752,3.751,8.019,8.019,0,0,0,2.1,3.437,4.216,4.216,0,0,0,5.03.365,6.075,6.075,0,0,0,2.83-5.575c-.125-2.569.119-6.025,2-7.9l13.31-13.31a2.581,2.581,0,1,1,3.649,3.649l-13.31,13.31a8.414,8.414,0,0,0-.492,4,11.188,11.188,0,0,1-4.984,10.026A9.331,9.331,0,0,1,3569.775,484.235Z" transform="translate(-62.231 -2.8)" fill="#fff" stroke="#897ac8" stroke-width="2.5"/>
    <path id="Path_190" data-name="Path 190" d="M3471.167,467.338a2.574,2.574,0,0,1-1.016-.209l-8.47-3.63a2.581,2.581,0,0,1-.137-4.68l7.829-3.914-1.918-7.672a2.581,2.581,0,0,1,3.129-3.13l7.672,1.918,3.915-7.829a2.58,2.58,0,0,1,4.68.137l3.63,8.47a2.581,2.581,0,1,1-4.744,2.033l-1.438-3.356-2.352,4.7a2.579,2.579,0,0,1-2.934,1.349l-5.508-1.377,1.377,5.508a2.581,2.581,0,0,1-1.35,2.934l-4.7,2.352,3.356,1.438a2.581,2.581,0,0,1-1.018,4.953Z" transform="translate(-4.46 0)" fill="#fff" stroke="#897ac8" stroke-width="2.5"/>
    <path id="Path_191" data-name="Path 191" d="M3592.074,589.082H3592a2.58,2.58,0,0,1-2.3-1.563l-3.63-8.47a2.581,2.581,0,1,1,4.744-2.034l1.438,3.356,2.352-4.7a2.58,2.58,0,0,1,2.935-1.349l5.507,1.377-1.378-5.507a2.581,2.581,0,0,1,1.35-2.934l4.7-2.352-3.356-1.439a2.581,2.581,0,0,1,2.034-4.744l8.47,3.63a2.58,2.58,0,0,1,.137,4.68l-7.828,3.914,1.917,7.672a2.581,2.581,0,0,1-3.13,3.129l-7.671-1.918-3.914,7.828A2.582,2.582,0,0,1,3592.074,589.082Z" transform="translate(-83.846 -76.861)" fill="#fff" stroke="#897ac8" stroke-width="2.5"/>
  </g>
</svg>
