<svg xmlns="http://www.w3.org/2000/svg" width="34.139" height="55.918" viewBox="0 0 34.139 55.918">
  <path id="Path_112" data-name="Path 112" d="M1682.672,2465.373c.06-.074.113-.152.169-.227s.129-.169.189-.257.112-.182.167-.274.1-.159.142-.241.093-.189.137-.285.084-.172.121-.261.069-.187.1-.281.071-.19.1-.288.049-.189.073-.284.053-.2.073-.3.035-.22.05-.329c.013-.089.029-.176.039-.265a6.2,6.2,0,0,0,0-1.214c-.009-.094-.026-.184-.04-.276-.015-.107-.027-.213-.049-.319s-.05-.208-.076-.312-.043-.182-.07-.271-.069-.2-.1-.3-.061-.18-.1-.268-.084-.183-.128-.274-.082-.182-.13-.271-.1-.173-.153-.259-.1-.173-.156-.257-.137-.188-.206-.281c-.051-.067-.1-.136-.151-.2a6.167,6.167,0,0,0-.441-.482c-.009-.009-.017-.02-.027-.03l-21.777-21.778a6.151,6.151,0,1,0-8.7,8.7l17.178,17.458-17.119,17.459a6.151,6.151,0,0,0,8.7,8.7l21.778-21.778.014-.015Q1682.486,2465.6,1682.672,2465.373Z" transform="translate(-1649.926 -2433.484)" fill="#fff" opacity="0.85"/>
</svg>
